<?xml version="1.0" encoding="utf-8"?>
<svg xmlns="http://www.w3.org/2000/svg" viewBox="0 0 64 64" width="64" height="64">
  <!-- Square, tight favicon rendering of official logo -->
  <g transform="translate(0,7.2) scale(0.0808)">
<?xml version="1.0" encoding="utf-8"?>
<!-- Generator: Adobe Illustrator 25.2.0, SVG Export Plug-In . SVG Version: 6.00 Build 0)  -->
<svg version="1.1" xmlns="http://www.w3.org/2000/svg" x="0" y="0"
  viewBox="0 0 792 612" xml:space="preserve">
<style type="text/css">
  .st0{fill:#FFFFFF;}
  .st1{fill:#231F20;}
  .st2{fill:none;stroke:#231F20;stroke-width:8.0705;stroke-linecap:round;stroke-linejoin:round;stroke-miterlimit:10;}
</style>
<g>
  <path class="st0" d="M390.3,279.4v58c0,31.6-25.6,57.2-57.2,57.2h0c-31.6,0-57.2-25.6-57.2-57.2l0-58c14.1,9.2,34.5,15,57.2,15
    C355.4,294.5,376.2,288.4,390.3,279.4z"/>
  <path class="st0" d="M390.2,255.9c0.3,3.2-1.4,6.2-4.1,7.7c-13.8,7.7-32.4,12.6-53,12.6s-39.1-4.8-53-12.6
    c-2.8-1.6-4.4-4.6-4.1-7.7c2.6-29.2,27.2-52.2,57.1-52.2h0C363,203.7,387.6,226.7,390.2,255.9z"/>
  <circle class="st0" cx="333.1" cy="249.9" r="10"/>
  <path class="st0" d="M275.8,261.1"/>
</g>
<g>
  <circle class="st1" cx="362" cy="254" r="6"/>
  <path class="st1" d="M333.1,263.9c-7.7,0-14-6.3-14-14s6.3-14,14-14s14,6.3,14,14S340.8,263.9,333.1,263.9z M333.1,244
    c-3.3,0-5.9,2.7-5.9,5.9s2.7,5.9,5.9,5.9s5.9-2.7,5.9-5.9S336.3,244,333.1,244z"/>
  <path class="st1" d="M333.1,398.7c-33.8,0-61.3-27.5-61.3-61.3v-58c0-1.5,0.8-2.8,2.1-3.5s2.9-0.6,4.1,0.2c14,9.1,34,14.4,55,14.4
    c20.3,0,40.9-5.4,55.1-14.4c1.2-0.8,2.8-0.8,4.1-0.1c1.3,0.7,2.1,2.1,2.1,3.5v58C394.3,371.2,366.8,398.7,333.1,398.7z
     M279.8,286.5v51c0,29.3,23.9,53.2,53.2,53.2s53.2-23.9,53.2-53.2v-51c-14.9,7.7-33.9,12.1-53.2,12.1
    C313.5,298.5,294.5,294.2,279.8,286.5z"/>
  <path class="st1" d="M333.1,280.3c-20.4,0-39.9-4.6-54.9-13.1c-4.2-2.3-6.6-6.9-6.2-11.6c1.3-15.2,8.3-29.3,19.6-39.7
    c11.4-10.5,26.1-16.2,41.5-16.2s30.2,5.8,41.5,16.2c11.3,10.4,18.2,24.5,19.6,39.7l0,0c0.4,4.7-2,9.3-6.2,11.6
    C372.9,275.6,353.4,280.3,333.1,280.3z M333.1,207.8c-27.3,0-50.6,21.3-53.1,48.5c-0.1,1.6,0.7,3.1,2.1,3.9c13.9,7.8,32,12,51,12
    s37.1-4.3,51-12c1.4-0.8,2.2-2.3,2.1-3.9l0,0C383.7,229.1,360.4,207.8,333.1,207.8z"/>
  <path class="st1" d="M323.1,253.7c-0.1,0-0.2,0-0.3,0c-15.5-1.2-30.1-5.1-42.1-11.3c-2-1-2.8-3.5-1.7-5.4c1-2,3.5-2.8,5.4-1.7
    c11.1,5.7,24.6,9.3,39,10.4c2.2,0.2,3.9,2.1,3.7,4.3C327,252.1,325.2,253.7,323.1,253.7z"/>
  <path class="st1" d="M333.1,339.5c-22.5,0-44.1-5.7-59.3-15.6c-1.9-1.2-2.4-3.7-1.2-5.6s3.7-2.4,5.6-1.2c14,9.1,34,14.3,54.9,14.3
    s41-5.2,54.9-14.3c1.9-1.2,4.4-0.7,5.6,1.2c1.2,1.9,0.7,4.4-1.2,5.6C377.1,333.8,355.5,339.5,333.1,339.5z"/>
  <path class="st1" d="M333.1,357.6c-22.4,0-43.9-5.7-59.2-15.5c-1.9-1.2-2.4-3.7-1.2-5.6s3.7-2.4,5.6-1.2c14,9,33.9,14.2,54.8,14.2
    s40.8-5.2,54.8-14.2c1.9-1.2,4.4-0.7,5.6,1.2c1.2,1.9,0.7,4.4-1.2,5.6C377,352,355.4,357.6,333.1,357.6z"/>
  <path class="st2" d="M275.8,261.1"/>
</g>
</svg>
  </g>
</svg>
